# ProBuilder 4.0.5
# https://unity3d.com/unity/features/worldbuilding/probuilder
# 2019-08-11 8:17:14 PM

mtllib ./Tank_Top.mtl
o Tank Top

g Tank Top
v 0.601422 1.637473 0.1725256
v 0.574 1.744 -0.01800001
v 1.182479 1.787048 0.1725256
v 1.155057 1.893575 -0.01800001
v 0.5914504 1.67621 -0.01800001
v 0.6101472 1.603578 0.1119038
v 1.172508 1.825785 -0.01800001
v 1.191204 1.753153 0.1119038
v 0.656266 1.424419 0.1725256
v 1.237323 1.573993 0.1725256
v 0.6475409 1.458314 0.1119038
v 1.228598 1.607888 0.1119038
v 0.6836881 1.317892 -0.01800001
v 1.264745 1.467466 -0.01800001
v 0.6662377 1.385682 -0.01800001
v 1.247295 1.535256 -0.01800001
v 0.656266 1.424419 -0.2085256
v 1.237323 1.573993 -0.2085256
v 0.6475409 1.458314 -0.1479038
v 1.228598 1.607888 -0.1479038
v 0.601422 1.637473 -0.2085256
v 1.182479 1.787048 -0.2085256
v 0.6101472 1.603578 -0.1479038
v 1.191204 1.753153 -0.1479038
v 1.763536 1.936622 0.1725256
v 1.736115 2.043149 -0.01800001
v 1.753565 1.975359 -0.01800001
v 1.772262 1.902727 0.1119038
v 1.818381 1.723568 0.1725256
v 1.809655 1.757463 0.1119038
v 1.845803 1.617041 -0.01800001
v 1.828352 1.684831 -0.01800001
v 1.818381 1.723568 -0.2085256
v 1.809655 1.757463 -0.1479038
v 1.763536 1.936622 -0.2085256
v 1.772262 1.902727 -0.1479038
v 0.6238731 1.801692 0.4546279
v -0.3213826 1.801692 0.4546279
v 0.6238731 1.801692 -0.4906279
v -0.3213826 1.801692 -0.4906279
v 0.9442229 1.237467 -0.8109777
v -0.6417323 1.237467 -0.8109777
v 0.9442229 1.237467 0.7749777
v -0.6417323 1.237467 0.7749777
v -0.6417323 1.51958 0.7749777
v 0.9442229 1.51958 0.7749777
v -0.6417323 1.51958 -0.8109777
v 0.9442229 1.51958 -0.8109777

vt 0.22 -5.960464E-08
vt 0 0
vt 0.22 0.6
vt 5.960464E-08 0.6
vt -0.03500003 5.960464E-08
vt -0.1850001 0
vt -0.03500003 0.6
vt -0.1850001 0.6
vt 0.33 2.980232E-08
vt 0.1100001 -2.980232E-08
vt 0.33 0.6
vt 0.11 0.5999999
vt -0.1449999 2.980232E-08
vt -0.295 2.980232E-08
vt -0.145 0.6
vt -0.295 0.6000001
vt 0.22 0
vt 0.22 0.6
vt -0.03499997 0
vt -0.03499982 0.6
vt -0.185 0.6
vt -0.2200001 0
vt -0.22 0.5999999
vt 0.1850002 5.960464E-08
vt 0.035 0
vt 0.185 0.6
vt 0.03499982 0.6
vt -0.11 0
vt -0.33 -2.980232E-08
vt -0.11 0.6
vt -0.33 0.6
vt 0.295 0
vt 0.145 2.980232E-08
vt 0.295 0.6
vt 0.145 0.5999999
vt -0.22 0.5999999
vt 0.22 1.2
vt 0 1.2
vt -0.1850003 0.6
vt -0.03499973 1.2
vt -0.1850001 1.2
vt 0.33 0.6000001
vt 0.1099999 0.6000001
vt 0.3300002 1.2
vt 0.11 1.2
vt -0.1449997 0.6000001
vt -0.145 1.2
vt -0.2950004 1.2
vt 0.22 0.5999999
vt 0.22 1.2
vt 0 1.2
vt -0.22 0.6
vt -0.22 1.2
vt 0.03500009 0.6000001
vt 0.185 1.2
vt 0.03499973 1.2
vt -0.1099999 0.6000001
vt -0.1100001 1.2
vt -0.3300002 1.2
vt 0.295 0.6
vt 0.1449999 0.6
vt 0.2950003 1.2
vt 0.1450001 1.2
vt -0.22 1.2
vt 0.1850001 0.5999999
vt 0.03500003 0.5999999
vt 0.1850001 1.2
vt 0.03500003 1.2
vt 0.1100001 0.1905256
vt 0.07000005 0
vt 0.145 0.1299038
vt -0.1100001 0.1905256
vt -0.1450001 0.1299039
vt -0.07000011 0
vt 0.11 0.1905256
vt 0.33 0.1905256
vt 0.1449999 0.1299038
vt 0.295 0.1299038
vt -0.33 0.1905256
vt -0.295 0.1299038
vt -0.1449999 0.1299038
vt 0.44 -7.450581E-09
vt 0.3699999 -7.450581E-09
vt -0.44 -2.235174E-08
vt -0.3700001 -3.72529E-08
vt -0.295 0.1299038
vt 0.33 -0.1905256
vt 0.37 -4.470348E-08
vt 0.295 -0.1299038
vt -0.33 -0.1905256
vt -0.295 -0.1299038
vt 0.33 -0.1905257
vt 0.1100001 -0.1905257
vt 0.145 -0.1299039
vt -0.11 -0.1905256
vt -0.33 -0.1905256
vt -0.1449999 -0.1299038
vt -0.2949999 -0.1299038
vt 0.06999999 -5.960464E-08
vt -0.06999999 0
vt 0.02737212 -0.02737206
vt 0.9726279 -0.02737206
vt 0.02737212 -0.9726279
vt 0.9726279 -0.9726279
vt 0.2929777 -1.292978
vt -1.292978 -1.292978
vt 0.2929777 0.2929777
vt -1.292978 0.2929777
vt 0.2929777 -0.130025
vt -1.292978 -0.130025
vt -1.292978 0.4073587
vt 0.2929777 0.4073587
vt -0.9726279 1.027487
vt -0.02737212 1.027487
vt 0.2929777 -0.3883182
vt -1.292978 -0.3883182
vt -1.292978 0.1490655
vt 0.2929777 0.1490655
vt -0.9726279 0.7691935
vt -0.027372 0.7691935
vt 1.372719 -0.376213
vt -0.2572519 -0.6236545
vt -0.3727188 0.1369601
vt 1.257252 0.3844015
vt -0.2289574 -0.02939212
vt -0.01527983 0.7845945
vt 0.9140164 0.906378
vt 1.330221 0.1749368
vt 1.372719 -0.1179198
vt -0.2572522 -0.3653605
vt -0.3727186 0.3952535
vt 1.257252 0.6426942
vt -0.2289577 0.2289017
vt -0.01527977 1.042888
vt 0.9140165 1.164671
vt 1.330221 0.4332302

vn -0.2158925 0.8386837 0.5000001
vn -0.2158924 0.8386838 0.4999999
vn 0.2158924 -0.8386839 -0.4999999
vn 0 0 1
vn -4.952966E-08 1.924094E-07 -1
vn 0.2158924 -0.8386837 0.5000001
vn 0.2158924 -0.8386838 0.4999999
vn -0.2158924 0.8386838 -0.5
vn 0.2158923 -0.8386837 -0.5000002
vn -0.2158923 0.8386837 -0.5000001
vn -0.9684286 -0.2492913 -2.176888E-07
vn 0.9684287 0.2492908 2.562494E-07
vn 0 1 0
vn 0 -1 0
vn 0 0.7504755 0.6608983
vn -1 0 0
vn -0.6608983 0.7504755 0
vn 0 0.7504755 -0.6608982
vn 1 0 0
vn 0.6608982 0.7504755 0

g Tank Top_0
usemtl Tank_Green
f 3/3/2 4/4/2 2/2/2 1/1/1
f 10/11/4 3/12/4 1/10/4 9/9/4
f 14/18/6 10/4/7 9/2/6 13/17/6
f 18/4/9 14/23/9 13/22/9 17/2/9
f 22/30/5 18/31/5 17/29/5 21/28/5
f 4/4/10 22/36/8 21/22/10 2/2/10
f 25/37/2 26/38/1 4/4/2 3/18/2
f 29/44/4 25/45/4 3/43/4 10/42/4
f 31/50/7 29/51/7 10/4/7 14/49/7
f 33/38/9 31/53/9 14/52/9 18/4/9
f 35/58/5 33/59/5 18/31/5 22/57/5
f 34/62/4 36/63/4 24/61/4 20/60/4
f 26/38/10 35/64/10 22/52/10 4/4/8
f 5/70/11 6/71/11 1/69/11 2/2/11
f 28/73/12 27/74/12 26/2/12 25/72/12
f 6/77/11 11/78/11 9/76/11 1/75/11
f 30/80/12 28/81/12 25/72/12 29/79/12
f 11/78/11 15/83/11 13/82/11 9/76/11
f 32/85/12 30/86/12 29/79/12 31/84/12
f 15/88/11 19/89/11 17/87/11 13/82/11
f 34/91/12 32/85/12 31/84/12 33/90/12
f 19/89/11 23/94/11 21/93/11 17/92/11
f 36/97/12 34/98/12 33/96/12 35/95/12
f 23/94/11 5/99/11 2/2/11 21/93/11
f 27/100/12 36/97/12 35/95/12 26/2/12
f 39/103/13 40/104/13 38/102/13 37/101/13
f 43/107/14 44/108/14 42/106/14 41/105/14
f 46/112/4 45/111/4 44/110/4 43/109/4
f 37/114/15 38/113/15 45/111/15 46/112/15
f 45/118/16 47/117/16 42/116/16 44/115/16
f 38/120/17 40/119/17 47/117/17 45/118/17
f 42/121/5 47/124/5 48/123/5 41/122/5
f 47/128/18 40/127/18 39/126/18 48/125/18
f 41/129/19 48/132/19 46/131/19 43/130/19
f 48/136/20 39/135/20 37/134/20 46/133/20

g Tank Top_1
usemtl Tank_Tracks
f 7/7/3 8/8/3 6/6/3 5/5/3
f 8/15/5 12/16/5 11/14/5 6/13/5
f 12/20/8 16/21/8 15/6/8 11/19/8
f 16/26/1 20/27/1 19/25/1 15/24/1
f 20/34/4 24/35/4 23/33/4 19/32/4
f 24/26/7 7/27/7 5/25/7 23/24/7
f 27/40/3 28/41/3 8/39/3 7/20/3
f 28/47/5 30/48/5 12/16/5 8/46/5
f 30/40/10 32/41/10 16/39/10 12/20/8
f 32/55/1 34/56/1 20/54/1 16/26/1
f 36/67/7 27/68/7 7/66/7 24/65/7

