# ProBuilder 4.0.5
# https://unity3d.com/unity/features/worldbuilding/probuilder
# 2019-06-21 7:04:14 PM

mtllib ./Cube-Merged.mtl
o Cube-Merged

g Cube-Merged
v 5.756 13.018 4.768516
v 5.556 13.018 4.768516
v 5.756 15.018 4.768516
v 5.556 15.018 4.768516
v 5.556 13.018 1.768516
v 5.756 13.018 1.768516
v 5.556 15.018 1.768516
v 5.756 15.018 1.768516
v 5.556 15.018 3.268516
v 5.756 15.018 3.268516
v 5.556 13.018 3.268516
v 5.756 13.018 3.268516
v 5.75604 13.618 2.818516
v 5.75604 14.418 2.818516
v 5.75604 14.418 2.218516
v 5.75604 13.618 2.218516
v 5.55596 13.618 2.818516
v 5.55596 13.618 2.218516
v 5.55596 14.418 2.218516
v 5.55596 14.418 2.818516
v 5.557295 13.618 2.818516
v 5.557295 14.418 2.818516
v 5.557295 14.418 2.218516
v 5.557295 13.618 2.218516
v 5.75604 13.618 4.318516
v 5.75604 14.418 4.318516
v 5.75604 14.418 3.718516
v 5.75604 13.618 3.718516
v 5.55596 13.618 4.318516
v 5.55596 13.618 3.718516
v 5.55596 14.418 3.718516
v 5.55596 14.418 4.318516
v 5.552085 13.618 4.318516
v 5.552085 14.418 4.318516
v 5.552085 14.418 3.718516
v 5.552085 13.618 3.718516
v 5.556 13.018 1.775
v 5.556 13.018 1.575
v 5.556 15.018 1.775
v 5.556 15.018 1.575
v 8.556001 13.018 1.574997
v 8.556001 13.018 1.774997
v 8.556001 15.018 1.574997
v 8.556001 15.018 1.774997
v 7.056 15.018 1.574999
v 7.056001 15.018 1.774999
v 7.056 13.018 1.574999
v 7.056001 13.018 1.774999
v 7.506001 13.618 1.775038
v 7.506001 14.418 1.775038
v 8.106001 14.418 1.775038
v 8.106001 13.618 1.775038
v 7.506001 13.618 1.574958
v 8.106 13.618 1.574958
v 8.106 14.418 1.574958
v 7.506001 14.418 1.574958
v 7.506001 13.618 1.576293
v 7.506001 14.418 1.576293
v 8.106 14.418 1.576293
v 8.106 13.618 1.576293
v 6.006 13.618 1.77504
v 6.006 14.418 1.77504
v 6.606 14.418 1.775039
v 6.606 13.618 1.775039
v 6.006 13.618 1.57496
v 6.606 13.618 1.574959
v 6.606 14.418 1.574959
v 6.006 14.418 1.57496
v 6.006 13.618 1.571085
v 6.006 14.418 1.571085
v 6.606 14.418 1.571084
v 6.606 13.618 1.571084
v 8.556 13.018 4.768516
v 8.356 13.018 4.768516
v 8.556 15.018 4.768516
v 8.356 15.018 4.768516
v 8.356 13.018 1.768516
v 8.556 13.018 1.768516
v 8.356 15.018 1.768516
v 8.556 15.018 1.768516
v 8.356 15.018 3.268516
v 8.556 15.018 3.268516
v 8.356 13.018 3.268516
v 8.556 13.018 3.268516
v 8.55604 13.618 2.818516
v 8.55604 14.418 2.818516
v 8.55604 14.418 2.218516
v 8.55604 13.618 2.218516
v 8.35596 13.618 2.818516
v 8.35596 13.618 2.218516
v 8.35596 14.418 2.218516
v 8.35596 14.418 2.818516
v 8.357295 13.618 2.818516
v 8.357295 14.418 2.818516
v 8.357295 14.418 2.218516
v 8.357295 13.618 2.218516
v 8.55604 13.618 4.318516
v 8.55604 14.418 4.318516
v 8.55604 14.418 3.718516
v 8.55604 13.618 3.718516
v 8.35596 13.618 4.318516
v 8.35596 13.618 3.718516
v 8.35596 14.418 3.718516
v 8.35596 14.418 4.318516
v 8.352085 13.618 4.318516
v 8.352085 14.418 4.318516
v 8.352085 14.418 3.718516
v 8.352085 13.618 3.718516
v 8.655 15 5.013
v 5.455 15 5.013
v 8.655 15.2 5.013
v 5.455 15.2 5.013
v 5.455 15 1.513
v 5.455 15.2 1.513
v 8.655 15 1.513
v 8.655 15.2 1.513
v 5.556 13.018 4.968
v 5.556 13.018 4.768
v 5.556 15.018 4.968
v 5.556 15.018 4.768
v 8.556001 13.018 4.767997
v 8.556001 13.018 4.967998
v 8.556001 15.018 4.767997
v 8.556001 15.018 4.967998
v 7.056 15.018 4.767999
v 7.056001 15.018 4.967999
v 7.056 13.018 4.767999
v 7.056001 13.018 4.967999
v 7.506001 13.618 4.968038
v 7.506001 14.418 4.968038
v 8.106001 14.418 4.968038
v 8.106001 13.618 4.968038
v 7.506001 13.618 4.767958
v 8.106 13.618 4.767958
v 8.106 14.418 4.767958
v 7.506001 14.418 4.767958
v 7.506001 13.618 4.769293
v 7.506001 14.418 4.769293
v 8.106 14.418 4.769293
v 8.106 13.618 4.769293
v 6.006 13.618 4.96804
v 6.006 14.418 4.96804
v 6.606 14.418 4.968039
v 6.606 13.618 4.968039
v 6.006 13.618 4.76796
v 6.606 13.618 4.767959
v 6.606 14.418 4.767959
v 6.006 14.418 4.76796
v 6.006 13.618 4.764085
v 6.006 14.418 4.764085
v 6.606 14.418 4.764084
v 6.606 13.618 4.764084

vt 0 0
vt -0.2 0
vt 0 2
vt -0.2 2
vt 0.2 0
vt 0.2 2
vt 0.2 -1.5
vt 0 -1.5
vt 0.2 -3
vt 0 -3
vt -0.2 -3
vt -0.2 -1.5
vt 1.5 0
vt 1.5 2
vt 1.95 0.6000004
vt 1.95 1.4
vt 3 2
vt 2.55 1.4
vt 3 0
vt 2.55 1.4
vt 2.55 0.6000004
vt 2.55 0.6000004
vt -1.5 1.329187E-05
vt -3 1.329187E-05
vt -1.95 0.6000137
vt -2.55 0.6000137
vt -2.999982 0
vt -2.999982 2
vt -2.549982 1.4
vt -1.500018 2
vt -1.950018 1.4
vt -3 1.999987
vt -1.5 1.999987
vt -4.005432E-05 0.6000004
vt -4.005432E-05 1.4
vt 0.1987047 0.6000004
vt 0.1987047 1.4
vt 4.005432E-05 -1.95
vt 4.005432E-05 -2.55
vt -0.1987047 -1.95
vt -0.1987047 -2.55
vt -0.1987047 1.4
vt -0.1987047 0.6000004
vt 0.1987047 -2.55
vt 0.1987047 -1.95
vt 0.4499998 0.6000004
vt 0.4499998 1.4
vt 1.05 1.4
vt 1.05 0.6000004
vt -0.4499998 0.6000137
vt -1.05 0.6000137
vt -1.499982 0
vt -1.499982 2
vt -1.049982 1.4
vt -0.4500175 1.4
vt -0.4500175 0.6000004
vt 0 1.999987
vt -0.4499998 1.399986
vt 0.2039146 0.6000004
vt 0.2039146 1.4
vt 4.005432E-05 -0.4499998
vt 4.005432E-05 -1.05
vt -0.2039146 -0.4499998
vt -0.2039146 -1.05
vt -0.2039146 1.4
vt -0.2039146 0.6000004
vt 0.2039146 -1.05
vt 0.2039146 -0.4499998
vt 0.2000016 0
vt -0.200002 -1.5
vt -0.2000021 0
vt 1.95 1.4
vt 1.95 0.6000004
vt 4.005432E-05 -1.95
vt -3.2 0
vt 2.384186E-07 0.1999999
vt -3.2 0.1999999
vt -3.5 0
vt -3.5 0.1999999
vt 3.2 0
vt 3.2 0.1999999
vt 3.5 0
vt 3.5 0.1999999
vt -2.384186E-07 -3.5
vt 3.2 -3.5
vt -3.2 -3.5
vt 0.2 -1.5

vn 0 0 1
vn 0 0 -1
vn 0 1 0
vn 0 -1 0
vn 1 0 8.900959E-05
vn -1 -6.596243E-05 0

g Cube-Merged
usemtl Lit
f 3/3/1 4/4/1 2/2/1 1/1/1
f 7/6/2 8/3/2 6/1/2 5/5/2
f 4/5/3 3/1/3 10/8/3 9/7/3
f 9/7/3 10/8/3 8/10/3 7/9/3
f 5/11/4 6/10/4 12/8/4 11/12/4
f 11/12/4 12/8/4 1/1/4 2/2/4
f 13/15/5 14/16/5 10/14/5 12/13/5
f 14/16/5 15/18/5 8/17/5 10/14/5
f 15/20/5 16/21/5 6/19/5 8/17/5
f 16/22/5 13/15/5 12/13/5 6/19/5
f 17/25/6 18/26/6 5/24/6 11/23/6
f 18/26/6 19/29/6 7/28/6 5/27/6
f 20/31/6 17/25/6 11/23/6 9/30/6
f 19/29/6 20/31/6 9/33/6 7/32/6
f 21/36/2 22/37/2 14/35/2 13/34/2
f 22/40/4 23/41/4 15/39/4 14/38/4
f 23/42/1 24/43/1 16/34/1 15/35/1
f 24/44/3 21/45/3 13/38/3 16/39/3
f 25/46/5 26/47/5 3/3/5 1/1/5
f 26/47/5 27/48/5 10/14/5 3/3/5
f 27/48/5 28/49/5 12/13/5 10/14/5
f 28/49/5 25/46/5 1/1/5 12/13/5
f 29/50/6 30/51/6 11/23/6 2/1/6
f 30/51/6 31/54/6 9/53/6 11/52/6
f 32/55/6 29/56/6 2/1/6 4/3/6
f 31/54/6 32/58/6 4/57/6 9/33/6
f 33/59/2 34/60/2 26/35/2 25/34/2
f 34/63/4 35/64/4 27/62/4 26/61/4
f 35/65/1 36/66/1 28/34/1 27/35/1
f 36/67/3 33/68/3 25/61/3 28/62/3
f 39/3/6 40/4/6 38/2/6 37/1/6
f 43/6/5 44/3/5 42/1/5 41/5/5
f 40/69/3 39/1/3 46/8/3 45/7/3
f 45/7/3 46/8/3 44/10/3 43/9/3
f 41/11/4 42/10/4 48/8/4 47/70/4
f 47/12/4 48/8/4 37/1/4 38/71/4
f 49/15/1 50/16/1 46/14/1 48/13/1
f 50/72/1 51/20/1 44/17/1 46/14/1
f 51/20/1 52/21/1 42/19/1 44/17/1
f 52/21/1 49/73/1 48/13/1 42/19/1
f 53/25/2 54/26/2 41/24/2 47/23/2
f 54/26/2 55/29/2 43/28/2 41/27/2
f 56/31/2 53/25/2 47/23/2 45/30/2
f 55/29/2 56/31/2 45/33/2 43/32/2
f 57/36/5 58/37/5 50/35/5 49/34/5
f 58/40/4 59/41/4 51/39/4 50/74/4
f 59/42/6 60/43/6 52/34/6 51/35/6
f 60/44/3 57/45/3 49/74/3 52/39/3
f 61/46/1 62/47/1 39/3/1 37/1/1
f 62/47/1 63/48/1 46/14/1 39/3/1
f 63/48/1 64/49/1 48/13/1 46/14/1
f 64/49/1 61/46/1 37/1/1 48/13/1
f 65/56/2 66/51/2 47/23/2 38/1/2
f 66/51/2 67/54/2 45/53/2 47/52/2
f 68/55/2 65/56/2 38/1/2 40/3/2
f 67/54/2 68/55/2 40/57/2 45/33/2
f 69/59/5 70/60/5 62/35/5 61/34/5
f 70/63/4 71/64/4 63/62/4 62/61/4
f 71/65/6 72/66/6 64/34/6 63/35/6
f 72/67/3 69/68/3 61/61/3 64/62/3
f 75/3/1 76/4/1 74/2/1 73/1/1
f 79/6/2 80/3/2 78/1/2 77/5/2
f 76/5/3 75/1/3 82/8/3 81/7/3
f 81/7/3 82/8/3 80/10/3 79/9/3
f 77/11/4 78/10/4 84/8/4 83/12/4
f 83/12/4 84/8/4 73/1/4 74/2/4
f 85/15/5 86/16/5 82/14/5 84/13/5
f 86/16/5 87/18/5 80/17/5 82/14/5
f 87/18/5 88/22/5 78/19/5 80/17/5
f 88/22/5 85/15/5 84/13/5 78/19/5
f 89/25/6 90/26/6 77/24/6 83/23/6
f 90/26/6 91/29/6 79/28/6 77/27/6
f 92/31/6 89/25/6 83/23/6 81/30/6
f 91/29/6 92/31/6 81/33/6 79/32/6
f 93/36/2 94/37/2 86/35/2 85/34/2
f 94/40/4 95/41/4 87/39/4 86/38/4
f 95/42/1 96/43/1 88/34/1 87/35/1
f 96/44/3 93/45/3 85/38/3 88/39/3
f 97/46/5 98/47/5 75/3/5 73/1/5
f 98/47/5 99/48/5 82/14/5 75/3/5
f 99/48/5 100/49/5 84/13/5 82/14/5
f 100/49/5 97/46/5 73/1/5 84/13/5
f 101/50/6 102/51/6 83/23/6 74/1/6
f 102/51/6 103/54/6 81/53/6 83/52/6
f 104/55/6 101/56/6 74/1/6 76/3/6
f 103/54/6 104/58/6 76/57/6 81/33/6
f 105/59/2 106/60/2 98/35/2 97/34/2
f 106/63/4 107/64/4 99/62/4 98/61/4
f 107/65/1 108/66/1 100/34/1 99/35/1
f 108/67/3 105/68/3 97/61/3 100/62/3
f 111/76/1 112/77/1 110/75/1 109/1/1
f 112/76/6 114/79/6 113/78/6 110/1/6
f 114/81/2 116/76/2 115/1/2 113/80/2
f 116/83/5 111/76/5 109/1/5 115/82/5
f 116/84/3 114/85/3 112/80/3 111/1/3
f 109/1/4 110/75/4 113/86/4 115/84/4
f 119/3/6 120/4/6 118/2/6 117/1/6
f 123/6/5 124/3/5 122/1/5 121/5/5
f 120/69/3 119/1/3 126/8/3 125/87/3
f 125/7/3 126/8/3 124/10/3 123/9/3
f 121/11/4 122/10/4 128/8/4 127/70/4
f 127/70/4 128/8/4 117/1/4 118/71/4
f 129/15/1 130/16/1 126/14/1 128/13/1
f 130/72/1 131/20/1 124/17/1 126/14/1
f 131/20/1 132/21/1 122/19/1 124/17/1
f 132/21/1 129/73/1 128/13/1 122/19/1
f 133/25/2 134/26/2 121/24/2 127/23/2
f 134/26/2 135/29/2 123/28/2 121/27/2
f 136/31/2 133/25/2 127/23/2 125/30/2
f 135/29/2 136/31/2 125/33/2 123/32/2
f 137/36/5 138/37/5 130/35/5 129/34/5
f 138/40/4 139/41/4 131/39/4 130/74/4
f 139/42/6 140/43/6 132/34/6 131/35/6
f 140/44/3 137/45/3 129/74/3 132/39/3
f 141/46/1 142/47/1 119/3/1 117/1/1
f 142/47/1 143/48/1 126/14/1 119/3/1
f 143/48/1 144/49/1 128/13/1 126/14/1
f 144/49/1 141/46/1 117/1/1 128/13/1
f 145/56/2 146/51/2 127/23/2 118/1/2
f 146/51/2 147/54/2 125/53/2 127/52/2
f 148/55/2 145/56/2 118/1/2 120/3/2
f 147/54/2 148/55/2 120/57/2 125/33/2
f 149/59/5 150/60/5 142/35/5 141/34/5
f 150/63/4 151/64/4 143/62/4 142/61/4
f 151/65/6 152/66/6 144/34/6 143/35/6
f 152/67/3 149/68/3 141/61/3 144/62/3

