# ProBuilder 4.0.5
# https://unity3d.com/unity/features/worldbuilding/probuilder
# 2019-06-23 10:41:39 AM

mtllib ./Peak_Roof.mtl
o Peak Roof

g Arch
v 0.7278665 1.042986 0.7320509
v 3.227867 3.542986 0.7320509
v 0.7278665 1.042986 3.732051
v 3.227867 3.542986 3.732051
v 3.227867 3.042986 0.7320509
v 1.227867 1.042986 0.7320509
v 3.227867 3.042986 3.732051
v 1.227867 1.042986 3.732051
v 5.727867 1.042986 0.7320509
v 5.727867 1.042986 3.732051
v 5.227867 1.042986 0.7320509
v 5.227867 1.042986 3.732051

vt 0 0
vt -3.535534 0
vt 0 3
vt -3.535534 3
vt 3.18198 0
vt 0.3535534 0
vt 3.18198 3
vt 0.3535534 3
vt 0.5 3
vt 0.5 0
vt 0 -3.535534
vt -3 2.980232E-07
vt -3 -3.535534
vt 0 -3.18198
vt 0 -0.3535531
vt 3 -3.18198
vt 3 -0.3535531
vt 4.5 3
vt 5 3
vt 4.5 0
vt 5 0
vt 2.5 2.5
vt 2.5 2
vt -2.5 2.5
vt -2.5 2
vt -0.5 0
vt -5 -2.185569E-07
vt -4.5 -1.748456E-07

vn -0.7071068 0.7071068 0
vn 0.7071068 -0.7071068 0
vn 0 -1 0
vn 0.7071068 0.7071067 0
vn -0.7071068 -0.7071067 0
vn 0 0 1
vn 0 0 -1

g Arch
usemtl Lit
f 3/3/1 4/4/1 2/2/1 1/1/1
f 7/7/2 8/8/2 6/6/2 5/5/2
f 1/1/3 6/10/3 8/9/3 3/3/3
f 4/12/4 10/13/4 9/11/4 2/1/4
f 12/16/5 7/17/5 5/15/5 11/14/5
f 11/20/3 9/21/3 10/19/3 12/18/3
f 8/10/6 7/23/6 4/22/6 3/1/6
f 5/25/7 6/26/7 1/1/7 2/24/7
f 7/23/6 12/20/6 10/21/6 4/22/6
f 11/28/7 5/25/7 2/24/7 9/27/7

