# ProBuilder 4.0.5
# https://unity3d.com/unity/features/worldbuilding/probuilder
# 2019-06-23 11:12:11 AM

mtllib ./Small_house_front_wall.mtl
o Small house front wall

g Small house front wall
v 1.24 4.444519 3.37
v 1.24 5.202692 3.37
v 1.24 5.202692 3.495
v 1.24 4.444519 3.495
v 1.24 5.202692 3.62
v 1.24 4.444519 3.62
v 5.24 4.444519 3.62
v 5.24 5.202692 3.62
v 5.24 5.202692 3.495
v 5.24 4.444519 3.495
v 5.24 5.202692 3.37
v 5.24 4.444519 3.37
v 3.24 5.939121 3.62
v 2.983795 5.842187 3.62
v 2.74 6.690554 3.62
v 3.24 7.186507 3.62
v 2.24 4.940473 3.62
v 2.24 6.1946 3.62
v 3.24 5.939121 3.37
v 3.24 7.186507 3.37
v 2.74 6.690554 3.37
v 2.983795 5.842187 3.37
v 2.24 6.1946 3.37
v 2.24 4.940473 3.37
v 2.24 2.17 3.37
v 2.24 2.17 3.495
v 2.74 2.17 3.495
v 2.74 2.17 3.37
v 2.24 2.17 3.62
v 2.74 2.17 3.62
v 3.24 7.186507 3.495
v 3.74 2.17 3.495
v 4.24 2.17 3.495
v 4.24 2.17 3.37
v 3.74 2.17 3.37
v 3.74 2.17 3.62
v 4.24 2.17 3.62
v 3.74 6.690554 3.37
v 3.74 6.690554 3.62
v 4.24 6.1946 3.37
v 4.24 6.1946 3.62
v 4.24 4.940473 3.62
v 3.496205 5.842187 3.62
v 3.496205 5.842187 3.37
v 4.24 4.940473 3.37
v 1.74 4.692496 3.62
v 1.74 5.698646 3.62
v 1.74 5.698646 3.37
v 1.74 4.692496 3.37
v 1.24 2.17 3.37
v 1.24 2.17 3.495
v 1.74 2.17 3.495
v 1.74 2.17 3.37
v 1.24 2.17 3.62
v 1.74 2.17 3.62
v 4.74 2.17 3.495
v 4.74 2.17 3.37
v 5.24 2.17 3.495
v 5.24 2.17 3.37
v 4.74 2.17 3.62
v 5.24 2.17 3.62
v 4.74 5.698646 3.37
v 4.74 5.698646 3.62
v 4.74 4.692496 3.62
v 4.74 4.692496 3.37
v 1.24 2.928173 3.495
v 1.24 2.928173 3.62
v 1.24 3.686346 3.495
v 1.24 3.686346 3.62
v 1.24 2.928173 3.37
v 1.24 3.686346 3.37
v 2.24 2.928173 3.62
v 2.74 2.928173 3.62
v 2.24 4.030108 3.62
v 2.74 3.686346 3.62
v 2.74 2.928173 3.37
v 2.24 2.928173 3.37
v 2.74 3.686346 3.37
v 2.24 4.03971 3.37
v 1.74 2.928173 3.62
v 1.74 4.030108 3.62
v 1.74 2.928173 3.37
v 1.74 4.03971 3.37
v 5.24 2.928173 3.495
v 5.24 2.928173 3.37
v 5.24 3.686346 3.495
v 5.24 3.686346 3.37
v 5.24 2.928173 3.62
v 5.24 3.686346 3.62
v 3.74 2.928173 3.62
v 4.24 2.928173 3.62
v 3.74 3.686346 3.62
v 4.24 4.030108 3.62
v 4.24 2.928173 3.37
v 3.74 2.928173 3.37
v 4.24 4.03971 3.37
v 3.74 3.686346 3.37
v 4.74 2.928173 3.62
v 4.74 4.030108 3.62
v 4.74 2.928173 3.37
v 4.74 4.03971 3.37
v 1.24 4.065433 3.37
v 1.24 4.065433 3.495
v 1.24 4.065433 3.62
v 5.24 4.065433 3.62
v 5.24 4.065433 3.495
v 5.24 4.065433 3.37
v 3.24 3.686346 3.62
v 2.983795 5.352691 3.62
v 3.24 5.256282 3.62
v 2.24 4.485291 3.62
v 3.24 3.686346 3.37
v 3.24 5.256282 3.37
v 2.983795 5.352691 3.37
v 2.24 4.313409 3.37
v 4.24 4.485291 3.62
v 3.496205 5.352691 3.62
v 3.496205 5.352691 3.37
v 4.24 4.313409 3.37
v 1.74 4.361302 3.62
v 1.74 4.189421 3.37
v 4.74 4.361302 3.62
v 4.74 4.189421 3.37
v 2.880051 5.597439 3.62
v 2.880051 5.597439 3.37
v 2.983795 5.352691 3.495
v 2.983795 5.842187 3.495
v 2.880051 5.597439 3.495
v 3.599949 5.597439 3.62
v 3.599949 5.597439 3.37
v 3.496205 5.352691 3.495
v 3.599949 5.597439 3.495
v 3.496205 5.842187 3.495

vt -0.25 2.274519
vt -0.25 3.032692
vt -0.125 3.032692
vt -0.125 2.274519
vt 0 3.032692
vt 0 2.274519
vt 0.125 3.032692
vt 0.125 2.274519
vt 0.25 3.032692
vt 0.25 2.274519
vt -2 3.769121
vt -2.256205 3.672187
vt -2.5 4.520554
vt -2 5.016507
vt -3 2.770473
vt -3 4.0246
vt 2 3.769121
vt 2 5.016507
vt 2.5 4.520554
vt 2.256205 3.672187
vt 3 4.0246
vt 3 2.770473
vt -3 -0.25
vt -3 -0.125
vt -2.5 -0.125
vt -2.5 -0.25
vt -3 0
vt -2.5 0
vt 3 -0.25
vt 2.5 -0.25
vt 2.5 0
vt 3 0
vt 2 -0.25
vt 2 -0.125
vt 2 0
vt -1.5 -0.125
vt -1 -0.125
vt -1 -0.25
vt -1.5 -0.25
vt -1.5 0
vt -1 0
vt 1.5 -0.25
vt 1.5 0
vt 1 -0.25
vt 1 0
vt -1 4.0246
vt -1 2.770473
vt -1.743795 3.672187
vt -1.5 4.520554
vt 1.743795 3.672187
vt 1.5 4.520554
vt 1 2.770473
vt 1 4.0246
vt -3.5 2.522496
vt -3.5 3.528646
vt -4 2.274519
vt -4 3.032692
vt 3.5 3.528646
vt 3.5 2.522496
vt 4 3.032692
vt 4 2.274519
vt -4 -0.25
vt -4 -0.125
vt -3.5 -0.125
vt -3.5 -0.25
vt -4 0
vt -3.5 0
vt 4 -0.125
vt 4 -0.25
vt 3.5 -0.25
vt 3.5 0
vt 4 0
vt -0.5 -0.125
vt -0.5 -0.25
vt 0 -0.125
vt 0 -0.25
vt -0.5 0
vt 0 0
vt 0.5 -0.25
vt 0.5 0
vt -0.5 2.522496
vt -0.5 3.528646
vt 0.5 2.522496
vt 0.5 3.528646
vt -0.125 0
vt -0.125 0.758173
vt 0 0.758173
vt -0.125 1.516346
vt 0 1.516346
vt -0.25 0
vt -0.25 0.758173
vt -0.25 1.516346
vt -3 0.758173
vt -2.5 0.758173
vt -3 1.860108
vt -2.5 1.516346
vt 2.5 0.758173
vt 3 0.758173
vt 2.5 1.516346
vt 3 1.86971
vt -3.5 0.758173
vt -4 0.758173
vt -4 1.516346
vt -3.5 1.860108
vt 3.5 0.758173
vt 4 0.758173
vt 3.5 1.86971
vt 4 1.516346
vt 0.125 0
vt 0.125 0.758173
vt 0.25 0.758173
vt 0.25 0
vt 0.125 1.516346
vt 0.25 1.516346
vt -1.5 0.758173
vt -1 0.758173
vt -1.5 1.516346
vt -1 1.860108
vt 1 0.758173
vt 1.5 0.758173
vt 1 1.86971
vt 1.5 1.516346
vt -0.5 0.758173
vt -0.5 1.860108
vt 0.5 0.758173
vt 0.5 1.86971
vt -0.25 1.895432
vt -0.125 1.895432
vt 0 1.895432
vt 0.125 1.895432
vt 0.25 1.895432
vt -2 1.516346
vt -2.256205 3.182691
vt -2 3.086282
vt -3 2.31529
vt 2 1.516346
vt 2 3.086282
vt 2.256205 3.182691
vt 3 2.143409
vt -1 2.31529
vt -1.743795 3.182691
vt 1.743795 3.182691
vt 1 2.143409
vt -3.5 2.191302
vt -4 1.895432
vt 3.5 2.019421
vt 4 1.895432
vt -0.5 2.191302
vt 0.5 2.019421
vt -2.359949 3.427439
vt 2.359949 3.427439
vt 3.23255 -0.25
vt 2.958807 -0.25
vt 2.958807 0
vt 3.23255 0
vt 3.23255 -0.125
vt -0.8107558 0
vt -0.5368267 0
vt -0.5368267 -0.25
vt -0.8107558 -0.25
vt -0.8107558 -0.125
vt 0 3.182691
vt 0 3.427439
vt 0.125 3.427439
vt 0.125 3.182691
vt 0 3.672187
vt 0.125 3.672187
vt 0.25 3.672187
vt 0.25 3.427439
vt 0.25 3.182691
vt -1.640051 3.427439
vt 1.640051 3.427439
vt 0.7849125 -0.25
vt 0.5111688 -0.25
vt 0.5111688 -0.125
vt 0.5111688 0
vt 0.7849125 0
vt -0.25 3.182691
vt -0.25 3.427439
vt -0.125 3.427439
vt -0.125 3.182691
vt -0.25 3.672187
vt -0.125 3.672187
vt -3.204357 0
vt -2.930428 0
vt -2.930428 -0.125
vt -2.930428 -0.25
vt -3.204357 -0.25
vt -3.5 -0.3215717
vt -3 -0.3215717
vt -3.5 -0.07138739
vt -3 -0.07138739
vt 0.25 1.86971
vt 0 1.860108
vt -0.25 1.86971
vt -0.5 -0.07138739
vt -1 -0.07138739
vt -0.5 -0.3215717
vt -1 -0.3215717
vt -2 0
vt -2 -0.25

vn -1 0 0
vn 1 0 0
vn 0 0 1
vn 0 0 -1
vn 0 -1 0
vn -0.7042285 0.7099735 0
vn 0.7042281 0.7099738 0
vn 0.3521866 0.9359298 0
vn 0.3538664 -0.935296 0
vn 0.9207014 0.3902677 0
vn 0.9207014 -0.3902677 0
vn -0.3521866 0.9359298 0
vn -0.9207014 0.3902677 0
vn -0.9207014 -0.3902677 0
vn -0.3538664 -0.935296 0
vn 0 -0.9992633 -0.03837808
vn 0 1 0

g Small house front wall
usemtl Lit
f 31/34/6 20/33/6 21/30/6
f 15/31/6 31/34/6 21/30/6
f 15/31/6 16/35/6 31/34/6
f 38/42/7 20/33/7 31/34/7
f 39/43/7 38/42/7 31/34/7
f 39/43/7 31/34/7 16/35/7
f 48/70/6 2/69/6 3/68/6
f 47/71/6 48/70/6 3/68/6
f 47/71/6 3/68/6 5/72/6
f 9/75/7 11/76/7 62/79/7
f 63/80/7 9/75/7 62/79/7
f 63/80/7 8/78/7 9/75/7
f 109/133/3 17/15/3 111/135/3
f 17/15/3 109/133/3 124/150/3
f 17/15/3 124/150/3 14/12/3
f 22/20/4 125/151/4 24/22/4
f 125/151/4 114/138/4 24/22/4
f 115/139/4 24/22/4 114/138/4
f 113/153/8 114/152/8 126/156/8
f 110/154/8 113/153/8 126/156/8
f 110/154/8 126/156/8 109/155/8
f 14/157/9 127/161/9 13/158/9
f 127/161/9 19/159/9 13/158/9
f 127/161/9 22/160/9 19/159/9
f 42/47/3 117/141/3 116/140/3
f 129/171/3 117/141/3 42/47/3
f 43/48/3 129/171/3 42/47/3
f 45/52/4 130/172/4 44/50/4
f 45/52/4 118/142/4 130/172/4
f 119/143/4 118/142/4 45/52/4
f 131/175/12 118/174/12 113/173/12
f 110/177/12 131/175/12 113/173/12
f 110/177/12 117/176/12 131/175/12
f 133/186/15 43/185/15 13/184/15
f 19/188/15 133/186/15 13/184/15
f 19/188/15 44/187/15 133/186/15
f 2/2/1 1/1/1 4/4/1
f 4/4/1 3/3/1 2/2/1
f 3/3/1 4/4/1 6/6/1
f 6/6/1 5/5/1 3/3/1
f 9/7/2 8/5/2 7/6/2
f 7/6/2 10/8/2 9/7/2
f 11/9/2 9/7/2 10/8/2
f 10/8/2 12/10/2 11/9/2
f 15/13/3 14/12/3 13/11/3
f 13/11/3 16/14/3 15/13/3
f 18/16/3 17/15/3 14/12/3
f 14/12/3 15/13/3 18/16/3
f 21/19/4 20/18/4 19/17/4
f 19/17/4 22/20/4 21/19/4
f 23/21/4 21/19/4 22/20/4
f 22/20/4 24/22/4 23/21/4
f 27/25/5 26/24/5 25/23/5
f 25/23/5 28/26/5 27/25/5
f 30/28/5 29/27/5 26/24/5
f 26/24/5 27/25/5 30/28/5
f 15/31/6 21/30/6 23/29/6
f 23/29/6 18/32/6 15/31/6
f 33/37/5 32/36/5 35/39/5
f 35/39/5 34/38/5 33/37/5
f 37/41/5 36/40/5 32/36/5
f 32/36/5 33/37/5 37/41/5
f 41/45/7 40/44/7 38/42/7
f 38/42/7 39/43/7 41/45/7
f 43/48/3 42/47/3 41/46/3
f 41/46/3 39/49/3 43/48/3
f 13/11/3 43/48/3 39/49/3
f 39/49/3 16/14/3 13/11/3
f 44/50/4 19/17/4 20/18/4
f 20/18/4 38/51/4 44/50/4
f 45/52/4 44/50/4 38/51/4
f 38/51/4 40/53/4 45/52/4
f 47/55/3 46/54/3 17/15/3
f 17/15/3 18/16/3 47/55/3
f 5/57/3 6/56/3 46/54/3
f 46/54/3 47/55/3 5/57/3
f 48/58/4 23/21/4 24/22/4
f 24/22/4 49/59/4 48/58/4
f 2/60/4 48/58/4 49/59/4
f 49/59/4 1/61/4 2/60/4
f 52/64/5 51/63/5 50/62/5
f 50/62/5 53/65/5 52/64/5
f 26/24/5 52/64/5 53/65/5
f 53/65/5 25/23/5 26/24/5
f 55/67/5 54/66/5 51/63/5
f 51/63/5 52/64/5 55/67/5
f 29/27/5 55/67/5 52/64/5
f 52/64/5 26/24/5 29/27/5
f 18/32/6 23/29/6 48/70/6
f 48/70/6 47/71/6 18/32/6
f 56/73/5 33/37/5 34/38/5
f 34/38/5 57/74/5 56/73/5
f 58/75/5 56/73/5 57/74/5
f 57/74/5 59/76/5 58/75/5
f 60/77/5 37/41/5 33/37/5
f 33/37/5 56/73/5 60/77/5
f 61/78/5 60/77/5 56/73/5
f 56/73/5 58/75/5 61/78/5
f 63/80/7 62/79/7 40/44/7
f 40/44/7 41/45/7 63/80/7
f 64/81/3 7/6/3 8/5/3
f 8/5/3 63/82/3 64/81/3
f 42/47/3 64/81/3 63/82/3
f 63/82/3 41/46/3 42/47/3
f 65/83/4 45/52/4 40/53/4
f 40/53/4 62/84/4 65/83/4
f 12/6/4 65/83/4 62/84/4
f 62/84/4 11/5/4 12/6/4
f 66/86/1 51/85/1 54/78/1
f 54/78/1 67/87/1 66/86/1
f 68/88/1 66/86/1 67/87/1
f 67/87/1 69/89/1 68/88/1
f 70/91/1 50/90/1 51/85/1
f 51/85/1 66/86/1 70/91/1
f 71/92/1 70/91/1 66/86/1
f 66/86/1 68/88/1 71/92/1
f 72/93/3 29/27/3 30/28/3
f 30/28/3 73/94/3 72/93/3
f 74/95/3 72/93/3 73/94/3
f 73/94/3 75/96/3 74/95/3
f 25/32/4 77/98/4 76/97/4
f 76/97/4 28/31/4 25/32/4
f 77/98/4 79/100/4 78/99/4
f 78/99/4 76/97/4 77/98/4
f 80/101/3 55/67/3 29/27/3
f 29/27/3 72/93/3 80/101/3
f 67/102/3 54/66/3 55/67/3
f 55/67/3 80/101/3 67/102/3
f 69/103/3 67/102/3 80/101/3
f 80/101/3 81/104/3 69/103/3
f 53/71/4 82/105/4 77/98/4
f 77/98/4 25/32/4 53/71/4
f 50/72/4 70/106/4 82/105/4
f 82/105/4 53/71/4 50/72/4
f 70/106/4 71/108/4 83/107/4
f 83/107/4 82/105/4 70/106/4
f 85/111/2 84/110/2 58/109/2
f 58/109/2 59/112/2 85/111/2
f 87/114/2 86/113/2 84/110/2
f 84/110/2 85/111/2 87/114/2
f 84/110/2 88/87/2 61/78/2
f 61/78/2 58/109/2 84/110/2
f 86/113/2 89/89/2 88/87/2
f 88/87/2 84/110/2 86/113/2
f 90/115/3 36/40/3 37/41/3
f 37/41/3 91/116/3 90/115/3
f 92/117/3 90/115/3 91/116/3
f 91/116/3 93/118/3 92/117/3
f 35/43/4 95/120/4 94/119/4
f 94/119/4 34/45/4 35/43/4
f 95/120/4 97/122/4 96/121/4
f 96/121/4 94/119/4 95/120/4
f 98/123/3 60/77/3 61/78/3
f 61/78/3 88/87/3 98/123/3
f 99/124/3 98/123/3 88/87/3
f 88/87/3 89/89/3 99/124/3
f 91/116/3 37/41/3 60/77/3
f 60/77/3 98/123/3 91/116/3
f 57/80/4 100/125/4 85/87/4
f 85/87/4 59/78/4 57/80/4
f 100/125/4 101/126/4 87/89/4
f 87/89/4 85/87/4 100/125/4
f 34/45/4 94/119/4 100/125/4
f 100/125/4 57/80/4 34/45/4
f 102/127/1 71/92/1 68/88/1
f 68/88/1 103/128/1 102/127/1
f 1/1/1 102/127/1 103/128/1
f 103/128/1 4/4/1 1/1/1
f 103/128/1 68/88/1 69/89/1
f 69/89/1 104/129/1 103/128/1
f 4/4/1 103/128/1 104/129/1
f 104/129/1 6/6/1 4/4/1
f 106/130/2 105/129/2 89/89/2
f 89/89/2 86/113/2 106/130/2
f 10/8/2 7/6/2 105/129/2
f 105/129/2 106/130/2 10/8/2
f 107/131/2 106/130/2 86/113/2
f 86/113/2 87/114/2 107/131/2
f 12/10/2 10/8/2 106/130/2
f 106/130/2 107/131/2 12/10/2
f 109/133/3 75/96/3 108/132/3
f 108/132/3 110/134/3 109/133/3
f 74/95/3 75/96/3 109/133/3
f 109/133/3 111/135/3 74/95/3
f 114/138/4 113/137/4 112/136/4
f 112/136/4 78/99/4 114/138/4
f 115/139/4 114/138/4 78/99/4
f 78/99/4 79/100/4 115/139/4
f 117/141/3 92/117/3 93/118/3
f 93/118/3 116/140/3 117/141/3
f 108/132/3 92/117/3 117/141/3
f 117/141/3 110/134/3 108/132/3
f 97/122/4 112/136/4 113/137/4
f 113/137/4 118/142/4 97/122/4
f 96/121/4 97/122/4 118/142/4
f 118/142/4 119/143/4 96/121/4
f 120/144/3 81/104/3 74/95/3
f 74/95/3 111/135/3 120/144/3
f 46/54/3 120/144/3 111/135/3
f 111/135/3 17/15/3 46/54/3
f 104/145/3 69/103/3 81/104/3
f 81/104/3 120/144/3 104/145/3
f 6/56/3 104/145/3 120/144/3
f 120/144/3 46/54/3 6/56/3
f 121/146/4 115/139/4 79/100/4
f 79/100/4 83/107/4 121/146/4
f 49/59/4 24/22/4 115/139/4
f 115/139/4 121/146/4 49/59/4
f 102/147/4 121/146/4 83/107/4
f 83/107/4 71/108/4 102/147/4
f 1/61/4 49/59/4 121/146/4
f 121/146/4 102/147/4 1/61/4
f 122/148/3 105/129/3 7/6/3
f 7/6/3 64/81/3 122/148/3
f 99/124/3 89/89/3 105/129/3
f 105/129/3 122/148/3 99/124/3
f 116/140/3 122/148/3 64/81/3
f 64/81/3 42/47/3 116/140/3
f 93/118/3 99/124/3 122/148/3
f 122/148/3 116/140/3 93/118/3
f 123/149/4 119/143/4 45/52/4
f 45/52/4 65/83/4 123/149/4
f 101/126/4 96/121/4 119/143/4
f 119/143/4 123/149/4 101/126/4
f 107/129/4 123/149/4 65/83/4
f 65/83/4 12/6/4 107/129/4
f 87/89/4 101/126/4 123/149/4
f 123/149/4 107/129/4 87/89/4
f 128/164/10 124/163/10 109/162/10
f 109/162/10 126/165/10 128/164/10
f 127/167/11 14/166/11 124/163/11
f 124/163/11 128/164/11 127/167/11
f 22/168/11 127/167/11 128/164/11
f 128/164/11 125/169/11 22/168/11
f 125/169/10 128/164/10 126/165/10
f 126/165/10 114/170/10 125/169/10
f 130/179/13 118/178/13 131/181/13
f 131/181/13 132/180/13 130/179/13
f 44/182/14 130/179/14 132/180/14
f 132/180/14 133/183/14 44/182/14
f 133/183/14 132/180/14 129/163/14
f 129/163/14 43/166/14 133/183/14
f 132/180/13 131/181/13 117/162/13
f 117/162/13 129/163/13 132/180/13
f 81/191/16 83/189/16 79/190/16
f 79/190/16 74/192/16 81/191/16
f 80/87/2 82/111/2 83/193/2
f 83/193/2 81/194/2 80/87/2
f 72/32/17 77/29/17 82/70/17
f 82/70/17 80/71/17 72/32/17
f 74/194/1 79/195/1 77/91/1
f 77/91/1 72/87/1 74/194/1
f 101/198/16 99/196/16 93/197/16
f 93/197/16 96/199/16 101/198/16
f 96/193/2 93/194/2 91/87/2
f 91/87/2 94/111/2 96/193/2
f 99/194/1 101/195/1 100/91/1
f 100/91/1 98/87/1 99/194/1
f 94/44/17 91/45/17 98/80/17
f 98/80/17 100/79/17 94/44/17
f 76/111/2 73/87/2 30/78/2
f 30/78/2 28/112/2 76/111/2
f 78/114/2 75/89/2 73/87/2
f 73/87/2 76/111/2 78/114/2
f 112/201/5 108/200/5 75/28/5
f 75/28/5 78/26/5 112/201/5
f 97/39/5 92/40/5 108/200/5
f 108/200/5 112/201/5 97/39/5
f 95/91/1 90/87/1 92/89/1
f 92/89/1 97/92/1 95/91/1
f 35/90/1 36/78/1 90/87/1
f 90/87/1 95/91/1 35/90/1

