# ProBuilder 4.0.5
# https://unity3d.com/unity/features/worldbuilding/probuilder
# 2019-06-23 10:58:04 AM

mtllib ./Small_House_back_wall.mtl
o Small House back wall

g Small House back wall
v 5.24 2.17 1.06
v 3.24 2.17 1.06
v 3.24 3.686346 1.06
v 5.24 3.686346 1.06
v 1.24 2.17 1.06
v 1.24 3.686346 1.06
v 1.24 5.202692 1.06
v 3.24 7.186507 1.06
v 5.24 5.202692 1.06
v 1.24 2.17 0.9349999
v 1.24 3.686346 0.9349999
v 1.24 2.17 0.8099999
v 1.24 3.686346 0.8099999
v 1.24 5.202692 0.8099999
v 1.24 5.202692 0.9349999
v 3.24 2.17 0.8099999
v 3.24 3.686346 0.8099999
v 5.24 2.17 0.8099999
v 5.24 3.686346 0.8099999
v 5.24 5.202692 0.8099999
v 3.24 7.186507 0.8099999
v 5.24 2.17 0.9349999
v 5.24 3.686346 0.9349999
v 5.24 5.202692 0.9349999
v 3.24 7.186507 0.9349999
v 3.24 2.17 0.9349999

vt 0 0
vt -2 0
vt -2 1.516346
vt 0 1.516346
vt -4 0
vt -4 1.516346
vt -4 3.032692
vt -2 5.016507
vt 0 3.032692
vt -0.125 0
vt -0.125 1.516346
vt -0.25 0
vt -0.25 1.516346
vt -0.25 3.032692
vt -0.125 3.032692
vt 4 0
vt 2 0
vt 2 1.516346
vt 4 1.516346
vt 2 5.016507
vt 4 3.032692
vt 0.25 0
vt 0.125 0
vt 0.125 1.516346
vt 0.25 1.516346
vt 0.125 3.032692
vt 0.25 3.032692
vt 2 -0.125
vt 0 -0.125
vt 4 -0.125
vt 4 -0.25
vt 2 -0.25
vt 0 -0.25
vt -2 -0.25
vt -2 -0.125
vt -4 -0.25
vt -4 -0.125

vn 0 0 1
vn -1 0 0
vn 0 0 -1
vn 1 0 0
vn 0.7042283 0.7099737 0
vn -0.7042283 0.7099737 0
vn 0 -1 0

g Small House back wall
usemtl Lit
f 9/1/5 24/29/5 25/28/5
f 9/1/5 25/28/5 8/17/5
f 24/29/5 20/33/5 21/32/5
f 24/29/5 21/32/5 25/28/5
f 8/17/6 25/28/6 15/30/6
f 8/17/6 15/30/6 7/16/6
f 25/28/6 21/32/6 14/31/6
f 25/28/6 14/31/6 15/30/6
f 3/3/1 2/2/1 1/1/1
f 1/1/1 4/4/1 3/3/1
f 6/6/1 5/5/1 2/2/1
f 2/2/1 3/3/1 6/6/1
f 7/7/1 6/6/1 3/3/1
f 3/3/1 8/8/1 7/7/1
f 8/8/1 3/3/1 4/4/1
f 4/4/1 9/9/1 8/8/1
f 11/11/2 10/10/2 5/1/2
f 5/1/2 6/4/2 11/11/2
f 13/13/2 12/12/2 10/10/2
f 10/10/2 11/11/2 13/13/2
f 14/14/2 13/13/2 11/11/2
f 11/11/2 15/15/2 14/14/2
f 15/15/2 11/11/2 6/4/2
f 6/4/2 7/9/2 15/15/2
f 13/19/3 17/18/3 16/17/3
f 16/17/3 12/16/3 13/19/3
f 17/18/3 19/4/3 18/1/3
f 18/1/3 16/17/3 17/18/3
f 21/20/3 20/9/3 19/4/3
f 19/4/3 17/18/3 21/20/3
f 14/21/3 21/20/3 17/18/3
f 17/18/3 13/19/3 14/21/3
f 19/25/4 23/24/4 22/23/4
f 22/23/4 18/22/4 19/25/4
f 23/24/4 4/4/4 1/1/4
f 1/1/4 22/23/4 23/24/4
f 24/26/4 9/9/4 4/4/4
f 4/4/4 23/24/4 24/26/4
f 20/27/4 24/26/4 23/24/4
f 23/24/4 19/25/4 20/27/4
f 22/29/7 26/35/7 16/34/7
f 16/34/7 18/33/7 22/29/7
f 26/35/7 10/37/7 12/36/7
f 12/36/7 16/34/7 26/35/7
f 2/2/7 5/5/7 10/37/7
f 10/37/7 26/35/7 2/2/7
f 1/1/7 2/2/7 26/35/7
f 26/35/7 22/29/7 1/1/7

